<?xml version="1.0" encoding="utf-8" standalone="no"?>
<!DOCTYPE svg PUBLIC "-//W3C//DTD SVG 1.1//EN"
  "http://www.w3.org/Graphics/SVG/1.1/DTD/svg11.dtd">
<svg xmlns:xlink="http://www.w3.org/1999/xlink" width="375.367044pt" height="323.631875pt" viewBox="0 0 375.367044 323.631875" xmlns="http://www.w3.org/2000/svg" version="1.1">
 <metadata>
  <rdf:RDF xmlns:dc="http://purl.org/dc/elements/1.1/" xmlns:cc="http://creativecommons.org/ns#" xmlns:rdf="http://www.w3.org/1999/02/22-rdf-syntax-ns#">
   <cc:Work>
    <dc:type rdf:resource="http://purl.org/dc/dcmitype/StillImage"/>
    <dc:date>2024-11-05T23:40:37.585669</dc:date>
    <dc:format>image/svg+xml</dc:format>
    <dc:creator>
     <cc:Agent>
      <dc:title>Matplotlib v3.9.2, https://matplotlib.org/</dc:title>
     </cc:Agent>
    </dc:creator>
   </cc:Work>
  </rdf:RDF>
 </metadata>
 <defs>
  <style type="text/css">*{stroke-linejoin: round; stroke-linecap: butt}</style>
 </defs>
 <g id="figure_1">
  <g id="patch_1">
   <path d="M 0 323.631875 
L 375.367044 323.631875 
L 375.367044 0 
L 0 0 
z
" style="fill: #ffffff"/>
  </g>
  <g id="axes_1">
   <g id="patch_2">
    <path d="M 43.228438 276.7 
L 363.644438 276.7 
L 363.644438 7.2 
L 43.228438 7.2 
z
" style="fill: #ffffff"/>
   </g>
   <g id="PolyCollection_1">
    <path d="M 57.792801 46.202915 
L 57.792801 92.043348 
L 60.735097 93.329996 
L 63.677393 94.479311 
L 66.619688 95.476045 
L 69.561984 96.74573 
L 72.50428 98.084516 
L 75.446575 99.380224 
L 78.388871 100.651257 
L 81.331167 101.8609 
L 84.273462 103.09979 
L 87.215758 104.388623 
L 90.158054 105.588947 
L 93.100349 106.809833 
L 96.042645 107.982781 
L 98.984941 109.181696 
L 101.927236 110.570238 
L 104.869532 111.890839 
L 107.811828 113.134801 
L 110.754123 114.155879 
L 113.696419 115.554997 
L 116.638715 116.949902 
L 119.581011 118.31368 
L 122.523306 119.48825 
L 125.465602 120.6211 
L 128.407898 122.166457 
L 131.350193 123.465977 
L 134.292489 124.896246 
L 137.234785 126.396774 
L 140.17708 127.853982 
L 143.119376 129.08162 
L 146.061672 130.409634 
L 149.003967 131.966275 
L 151.946263 133.300239 
L 154.888559 134.736724 
L 157.830854 136.280911 
L 160.77315 137.80076 
L 163.715446 139.519378 
L 166.657741 141.139564 
L 169.600037 142.7769 
L 172.542333 144.304998 
L 175.484629 145.831304 
L 178.426924 147.480576 
L 181.36922 149.100764 
L 184.311516 150.731714 
L 187.253811 152.408702 
L 190.196107 154.255985 
L 193.138403 156.034443 
L 196.080698 157.795544 
L 199.022994 159.494442 
L 201.96529 161.271865 
L 204.907585 163.292836 
L 207.849881 165.207617 
L 210.792177 167.279714 
L 213.734472 169.378481 
L 216.676768 171.406045 
L 219.619064 173.338911 
L 222.561359 175.397846 
L 225.503655 177.333915 
L 228.445951 179.147661 
L 231.388246 181.053812 
L 234.330542 183.015104 
L 237.272838 184.826921 
L 240.215134 186.832573 
L 243.157429 188.849659 
L 246.099725 190.905928 
L 249.042021 192.974465 
L 251.984316 195.028877 
L 254.926612 197.25351 
L 257.868908 199.514571 
L 260.811203 201.548417 
L 263.753499 203.577327 
L 266.695795 205.606189 
L 269.63809 207.578758 
L 272.580386 209.542463 
L 275.522682 211.661032 
L 278.464977 213.731239 
L 281.407273 215.717965 
L 284.349569 217.662944 
L 287.291864 219.829775 
L 290.23416 221.951687 
L 293.176456 224.131147 
L 296.118752 226.166803 
L 299.061047 228.198774 
L 302.003343 230.230745 
L 304.945639 232.261475 
L 307.887934 234.411939 
L 310.83023 236.584909 
L 313.772526 238.499756 
L 316.714821 240.604246 
L 319.657117 242.774619 
L 322.599413 244.944991 
L 325.541708 247.115364 
L 328.484004 249.285737 
L 331.4263 251.455199 
L 334.368595 253.623639 
L 337.310891 255.804782 
L 340.253187 258.081904 
L 343.195482 260.167523 
L 346.137778 262.297884 
L 349.080074 264.45 
L 349.080074 196.034685 
L 349.080074 196.034685 
L 346.137778 194.848171 
L 343.195482 193.647156 
L 340.253187 192.454686 
L 337.310891 191.563834 
L 334.368595 190.569009 
L 331.4263 189.479724 
L 328.484004 188.39044 
L 325.541708 187.301155 
L 322.599413 186.314916 
L 319.657117 185.34062 
L 316.714821 184.366325 
L 313.772526 183.392029 
L 310.83023 182.417734 
L 307.887934 181.443438 
L 304.945639 180.469142 
L 302.003343 179.494847 
L 299.061047 178.520551 
L 296.118752 177.546255 
L 293.176456 176.339933 
L 290.23416 175.065584 
L 287.291864 173.791235 
L 284.349569 172.516885 
L 281.407273 171.242536 
L 278.464977 169.968186 
L 275.522682 168.731208 
L 272.580386 167.634229 
L 269.63809 166.395627 
L 266.695795 165.197929 
L 263.753499 164.06414 
L 260.811203 163.17815 
L 257.868908 162.019767 
L 254.926612 160.787958 
L 251.984316 159.688742 
L 249.042021 158.624846 
L 246.099725 157.565858 
L 243.157429 156.548796 
L 240.215134 155.601969 
L 237.272838 154.37539 
L 234.330542 153.302699 
L 231.388246 152.067284 
L 228.445951 150.771591 
L 225.503655 149.563946 
L 222.561359 148.305683 
L 219.619064 147.096295 
L 216.676768 146.053309 
L 213.734472 144.619205 
L 210.792177 143.218306 
L 207.849881 142.064085 
L 204.907585 140.633514 
L 201.96529 139.019223 
L 199.022994 137.707362 
L 196.080698 136.328187 
L 193.138403 134.875525 
L 190.196107 133.42121 
L 187.253811 132.165929 
L 184.311516 130.703514 
L 181.36922 129.220776 
L 178.426924 127.459333 
L 175.484629 125.945782 
L 172.542333 124.172581 
L 169.600037 122.290297 
L 166.657741 120.607984 
L 163.715446 118.922627 
L 160.77315 117.227125 
L 157.830854 115.205083 
L 154.888559 113.303551 
L 151.946263 111.336374 
L 149.003967 109.524424 
L 146.061672 107.730811 
L 143.119376 105.937699 
L 140.17708 103.990826 
L 137.234785 101.985042 
L 134.292489 99.857415 
L 131.350193 97.729933 
L 128.407898 95.596255 
L 125.465602 93.589032 
L 122.523306 91.613399 
L 119.581011 89.641441 
L 116.638715 87.576136 
L 113.696419 85.697829 
L 110.754123 83.721033 
L 107.811828 81.744238 
L 104.869532 79.593577 
L 101.927236 77.417342 
L 98.984941 75.241106 
L 96.042645 73.06487 
L 93.100349 70.888634 
L 90.158054 68.750376 
L 87.215758 66.705267 
L 84.273462 64.66476 
L 81.331167 62.709206 
L 78.388871 60.584261 
L 75.446575 58.541852 
L 72.50428 56.496859 
L 69.561984 54.456459 
L 66.619688 52.416059 
L 63.677393 50.342985 
L 60.735097 48.305742 
L 57.792801 46.202915 
z
" clip-path="url(#p155696d60b)" style="fill: #808080; fill-opacity: 0.15"/>
   </g>
   <g id="PathCollection_1">
    <defs>
     <path id="C0_0_ccd7fe1d7c" d="M 0 3 
C 0.795609 3 1.55874 2.683901 2.12132 2.12132 
C 2.683901 1.55874 3 0.795609 3 -0 
C 3 -0.795609 2.683901 -1.55874 2.12132 -2.12132 
C 1.55874 -2.683901 0.795609 -3 0 -3 
C -0.795609 -3 -1.55874 -2.683901 -2.12132 -2.12132 
C -2.683901 -1.55874 -3 -0.795609 -3 0 
C -3 0.795609 -2.683901 1.55874 -2.12132 2.12132 
C -1.55874 2.683901 -0.795609 3 0 3 
z
"/>
    </defs>
    <g clip-path="url(#p155696d60b)">
     <use xlink:href="#C0_0_ccd7fe1d7c" x="239.847347" y="233.638692" style="fill: #1f77b4; stroke: #ffffff; stroke-width: 0.48"/>
    </g>
    <g clip-path="url(#p155696d60b)">
     <use xlink:href="#C0_0_ccd7fe1d7c" x="179.162498" y="233.638692" style="fill: #1f77b4; stroke: #ffffff; stroke-width: 0.48"/>
    </g>
    <g clip-path="url(#p155696d60b)">
     <use xlink:href="#C0_0_ccd7fe1d7c" x="203.436438" y="237.533032" style="fill: #1f77b4; stroke: #ffffff; stroke-width: 0.48"/>
    </g>
    <g clip-path="url(#p155696d60b)">
     <use xlink:href="#C0_0_ccd7fe1d7c" x="191.299468" y="229.744352" style="fill: #1f77b4; stroke: #ffffff; stroke-width: 0.48"/>
    </g>
    <g clip-path="url(#p155696d60b)">
     <use xlink:href="#C0_0_ccd7fe1d7c" x="251.984316" y="233.638692" style="fill: #1f77b4; stroke: #ffffff; stroke-width: 0.48"/>
    </g>
    <g clip-path="url(#p155696d60b)">
     <use xlink:href="#C0_0_ccd7fe1d7c" x="288.395225" y="221.955673" style="fill: #1f77b4; stroke: #ffffff; stroke-width: 0.48"/>
    </g>
    <g clip-path="url(#p155696d60b)">
     <use xlink:href="#C0_0_ccd7fe1d7c" x="227.710377" y="233.638692" style="fill: #1f77b4; stroke: #ffffff; stroke-width: 0.48"/>
    </g>
    <g clip-path="url(#p155696d60b)">
     <use xlink:href="#C0_0_ccd7fe1d7c" x="227.710377" y="229.744352" style="fill: #1f77b4; stroke: #ffffff; stroke-width: 0.48"/>
    </g>
    <g clip-path="url(#p155696d60b)">
     <use xlink:href="#C0_0_ccd7fe1d7c" x="167.025528" y="233.638692" style="fill: #1f77b4; stroke: #ffffff; stroke-width: 0.48"/>
    </g>
    <g clip-path="url(#p155696d60b)">
     <use xlink:href="#C0_0_ccd7fe1d7c" x="191.299468" y="229.744352" style="fill: #1f77b4; stroke: #ffffff; stroke-width: 0.48"/>
    </g>
    <g clip-path="url(#p155696d60b)">
     <use xlink:href="#C0_0_ccd7fe1d7c" x="264.121286" y="229.744352" style="fill: #1f77b4; stroke: #ffffff; stroke-width: 0.48"/>
    </g>
    <g clip-path="url(#p155696d60b)">
     <use xlink:href="#C0_0_ccd7fe1d7c" x="227.710377" y="225.850013" style="fill: #1f77b4; stroke: #ffffff; stroke-width: 0.48"/>
    </g>
    <g clip-path="url(#p155696d60b)">
     <use xlink:href="#C0_0_ccd7fe1d7c" x="179.162498" y="233.638692" style="fill: #1f77b4; stroke: #ffffff; stroke-width: 0.48"/>
    </g>
    <g clip-path="url(#p155696d60b)">
     <use xlink:href="#C0_0_ccd7fe1d7c" x="179.162498" y="245.321712" style="fill: #1f77b4; stroke: #ffffff; stroke-width: 0.48"/>
    </g>
    <g clip-path="url(#p155696d60b)">
     <use xlink:href="#C0_0_ccd7fe1d7c" x="300.532195" y="241.427372" style="fill: #1f77b4; stroke: #ffffff; stroke-width: 0.48"/>
    </g>
    <g clip-path="url(#p155696d60b)">
     <use xlink:href="#C0_0_ccd7fe1d7c" x="349.080074" y="229.744352" style="fill: #1f77b4; stroke: #ffffff; stroke-width: 0.48"/>
    </g>
    <g clip-path="url(#p155696d60b)">
     <use xlink:href="#C0_0_ccd7fe1d7c" x="288.395225" y="237.533032" style="fill: #1f77b4; stroke: #ffffff; stroke-width: 0.48"/>
    </g>
    <g clip-path="url(#p155696d60b)">
     <use xlink:href="#C0_0_ccd7fe1d7c" x="239.847347" y="233.638692" style="fill: #1f77b4; stroke: #ffffff; stroke-width: 0.48"/>
    </g>
    <g clip-path="url(#p155696d60b)">
     <use xlink:href="#C0_0_ccd7fe1d7c" x="276.258256" y="221.955673" style="fill: #1f77b4; stroke: #ffffff; stroke-width: 0.48"/>
    </g>
    <g clip-path="url(#p155696d60b)">
     <use xlink:href="#C0_0_ccd7fe1d7c" x="276.258256" y="229.744352" style="fill: #1f77b4; stroke: #ffffff; stroke-width: 0.48"/>
    </g>
    <g clip-path="url(#p155696d60b)">
     <use xlink:href="#C0_0_ccd7fe1d7c" x="227.710377" y="221.955673" style="fill: #1f77b4; stroke: #ffffff; stroke-width: 0.48"/>
    </g>
    <g clip-path="url(#p155696d60b)">
     <use xlink:href="#C0_0_ccd7fe1d7c" x="264.121286" y="229.744352" style="fill: #1f77b4; stroke: #ffffff; stroke-width: 0.48"/>
    </g>
    <g clip-path="url(#p155696d60b)">
     <use xlink:href="#C0_0_ccd7fe1d7c" x="251.984316" y="249.216052" style="fill: #1f77b4; stroke: #ffffff; stroke-width: 0.48"/>
    </g>
    <g clip-path="url(#p155696d60b)">
     <use xlink:href="#C0_0_ccd7fe1d7c" x="215.573407" y="221.955673" style="fill: #1f77b4; stroke: #ffffff; stroke-width: 0.48"/>
    </g>
    <g clip-path="url(#p155696d60b)">
     <use xlink:href="#C0_0_ccd7fe1d7c" x="227.710377" y="214.166993" style="fill: #1f77b4; stroke: #ffffff; stroke-width: 0.48"/>
    </g>
    <g clip-path="url(#p155696d60b)">
     <use xlink:href="#C0_0_ccd7fe1d7c" x="179.162498" y="225.850013" style="fill: #1f77b4; stroke: #ffffff; stroke-width: 0.48"/>
    </g>
    <g clip-path="url(#p155696d60b)">
     <use xlink:href="#C0_0_ccd7fe1d7c" x="227.710377" y="225.850013" style="fill: #1f77b4; stroke: #ffffff; stroke-width: 0.48"/>
    </g>
    <g clip-path="url(#p155696d60b)">
     <use xlink:href="#C0_0_ccd7fe1d7c" x="239.847347" y="229.744352" style="fill: #1f77b4; stroke: #ffffff; stroke-width: 0.48"/>
    </g>
    <g clip-path="url(#p155696d60b)">
     <use xlink:href="#C0_0_ccd7fe1d7c" x="227.710377" y="233.638692" style="fill: #1f77b4; stroke: #ffffff; stroke-width: 0.48"/>
    </g>
    <g clip-path="url(#p155696d60b)">
     <use xlink:href="#C0_0_ccd7fe1d7c" x="203.436438" y="225.850013" style="fill: #1f77b4; stroke: #ffffff; stroke-width: 0.48"/>
    </g>
    <g clip-path="url(#p155696d60b)">
     <use xlink:href="#C0_0_ccd7fe1d7c" x="191.299468" y="225.850013" style="fill: #1f77b4; stroke: #ffffff; stroke-width: 0.48"/>
    </g>
    <g clip-path="url(#p155696d60b)">
     <use xlink:href="#C0_0_ccd7fe1d7c" x="227.710377" y="229.744352" style="fill: #1f77b4; stroke: #ffffff; stroke-width: 0.48"/>
    </g>
    <g clip-path="url(#p155696d60b)">
     <use xlink:href="#C0_0_ccd7fe1d7c" x="312.669165" y="229.744352" style="fill: #1f77b4; stroke: #ffffff; stroke-width: 0.48"/>
    </g>
    <g clip-path="url(#p155696d60b)">
     <use xlink:href="#C0_0_ccd7fe1d7c" x="324.806134" y="233.638692" style="fill: #1f77b4; stroke: #ffffff; stroke-width: 0.48"/>
    </g>
    <g clip-path="url(#p155696d60b)">
     <use xlink:href="#C0_0_ccd7fe1d7c" x="191.299468" y="229.744352" style="fill: #1f77b4; stroke: #ffffff; stroke-width: 0.48"/>
    </g>
    <g clip-path="url(#p155696d60b)">
     <use xlink:href="#C0_0_ccd7fe1d7c" x="203.436438" y="241.427372" style="fill: #1f77b4; stroke: #ffffff; stroke-width: 0.48"/>
    </g>
    <g clip-path="url(#p155696d60b)">
     <use xlink:href="#C0_0_ccd7fe1d7c" x="239.847347" y="237.533032" style="fill: #1f77b4; stroke: #ffffff; stroke-width: 0.48"/>
    </g>
    <g clip-path="url(#p155696d60b)">
     <use xlink:href="#C0_0_ccd7fe1d7c" x="251.984316" y="233.638692" style="fill: #1f77b4; stroke: #ffffff; stroke-width: 0.48"/>
    </g>
    <g clip-path="url(#p155696d60b)">
     <use xlink:href="#C0_0_ccd7fe1d7c" x="179.162498" y="237.533032" style="fill: #1f77b4; stroke: #ffffff; stroke-width: 0.48"/>
    </g>
    <g clip-path="url(#p155696d60b)">
     <use xlink:href="#C0_0_ccd7fe1d7c" x="227.710377" y="229.744352" style="fill: #1f77b4; stroke: #ffffff; stroke-width: 0.48"/>
    </g>
    <g clip-path="url(#p155696d60b)">
     <use xlink:href="#C0_0_ccd7fe1d7c" x="239.847347" y="237.533032" style="fill: #1f77b4; stroke: #ffffff; stroke-width: 0.48"/>
    </g>
    <g clip-path="url(#p155696d60b)">
     <use xlink:href="#C0_0_ccd7fe1d7c" x="94.20371" y="237.533032" style="fill: #1f77b4; stroke: #ffffff; stroke-width: 0.48"/>
    </g>
    <g clip-path="url(#p155696d60b)">
     <use xlink:href="#C0_0_ccd7fe1d7c" x="203.436438" y="237.533032" style="fill: #1f77b4; stroke: #ffffff; stroke-width: 0.48"/>
    </g>
    <g clip-path="url(#p155696d60b)">
     <use xlink:href="#C0_0_ccd7fe1d7c" x="239.847347" y="225.850013" style="fill: #1f77b4; stroke: #ffffff; stroke-width: 0.48"/>
    </g>
    <g clip-path="url(#p155696d60b)">
     <use xlink:href="#C0_0_ccd7fe1d7c" x="276.258256" y="214.166993" style="fill: #1f77b4; stroke: #ffffff; stroke-width: 0.48"/>
    </g>
    <g clip-path="url(#p155696d60b)">
     <use xlink:href="#C0_0_ccd7fe1d7c" x="179.162498" y="233.638692" style="fill: #1f77b4; stroke: #ffffff; stroke-width: 0.48"/>
    </g>
    <g clip-path="url(#p155696d60b)">
     <use xlink:href="#C0_0_ccd7fe1d7c" x="276.258256" y="225.850013" style="fill: #1f77b4; stroke: #ffffff; stroke-width: 0.48"/>
    </g>
    <g clip-path="url(#p155696d60b)">
     <use xlink:href="#C0_0_ccd7fe1d7c" x="203.436438" y="233.638692" style="fill: #1f77b4; stroke: #ffffff; stroke-width: 0.48"/>
    </g>
    <g clip-path="url(#p155696d60b)">
     <use xlink:href="#C0_0_ccd7fe1d7c" x="264.121286" y="229.744352" style="fill: #1f77b4; stroke: #ffffff; stroke-width: 0.48"/>
    </g>
    <g clip-path="url(#p155696d60b)">
     <use xlink:href="#C0_0_ccd7fe1d7c" x="215.573407" y="233.638692" style="fill: #1f77b4; stroke: #ffffff; stroke-width: 0.48"/>
    </g>
    <g clip-path="url(#p155696d60b)">
     <use xlink:href="#C0_0_ccd7fe1d7c" x="203.436438" y="105.125477" style="fill: #ff7f0e; stroke: #ffffff; stroke-width: 0.48"/>
    </g>
    <g clip-path="url(#p155696d60b)">
     <use xlink:href="#C0_0_ccd7fe1d7c" x="203.436438" y="112.914157" style="fill: #ff7f0e; stroke: #ffffff; stroke-width: 0.48"/>
    </g>
    <g clip-path="url(#p155696d60b)">
     <use xlink:href="#C0_0_ccd7fe1d7c" x="191.299468" y="97.336797" style="fill: #ff7f0e; stroke: #ffffff; stroke-width: 0.48"/>
    </g>
    <g clip-path="url(#p155696d60b)">
     <use xlink:href="#C0_0_ccd7fe1d7c" x="94.20371" y="132.385856" style="fill: #ff7f0e; stroke: #ffffff; stroke-width: 0.48"/>
    </g>
    <g clip-path="url(#p155696d60b)">
     <use xlink:href="#C0_0_ccd7fe1d7c" x="154.888559" y="109.019817" style="fill: #ff7f0e; stroke: #ffffff; stroke-width: 0.48"/>
    </g>
    <g clip-path="url(#p155696d60b)">
     <use xlink:href="#C0_0_ccd7fe1d7c" x="154.888559" y="112.914157" style="fill: #ff7f0e; stroke: #ffffff; stroke-width: 0.48"/>
    </g>
    <g clip-path="url(#p155696d60b)">
     <use xlink:href="#C0_0_ccd7fe1d7c" x="215.573407" y="105.125477" style="fill: #ff7f0e; stroke: #ffffff; stroke-width: 0.48"/>
    </g>
    <g clip-path="url(#p155696d60b)">
     <use xlink:href="#C0_0_ccd7fe1d7c" x="106.34068" y="159.646235" style="fill: #ff7f0e; stroke: #ffffff; stroke-width: 0.48"/>
    </g>
    <g clip-path="url(#p155696d60b)">
     <use xlink:href="#C0_0_ccd7fe1d7c" x="167.025528" y="109.019817" style="fill: #ff7f0e; stroke: #ffffff; stroke-width: 0.48"/>
    </g>
    <g clip-path="url(#p155696d60b)">
     <use xlink:href="#C0_0_ccd7fe1d7c" x="142.751589" y="136.280196" style="fill: #ff7f0e; stroke: #ffffff; stroke-width: 0.48"/>
    </g>
    <g clip-path="url(#p155696d60b)">
     <use xlink:href="#C0_0_ccd7fe1d7c" x="57.792801" y="151.857555" style="fill: #ff7f0e; stroke: #ffffff; stroke-width: 0.48"/>
    </g>
    <g clip-path="url(#p155696d60b)">
     <use xlink:href="#C0_0_ccd7fe1d7c" x="179.162498" y="124.597176" style="fill: #ff7f0e; stroke: #ffffff; stroke-width: 0.48"/>
    </g>
    <g clip-path="url(#p155696d60b)">
     <use xlink:href="#C0_0_ccd7fe1d7c" x="82.066741" y="132.385856" style="fill: #ff7f0e; stroke: #ffffff; stroke-width: 0.48"/>
    </g>
    <g clip-path="url(#p155696d60b)">
     <use xlink:href="#C0_0_ccd7fe1d7c" x="167.025528" y="105.125477" style="fill: #ff7f0e; stroke: #ffffff; stroke-width: 0.48"/>
    </g>
    <g clip-path="url(#p155696d60b)">
     <use xlink:href="#C0_0_ccd7fe1d7c" x="167.025528" y="147.963215" style="fill: #ff7f0e; stroke: #ffffff; stroke-width: 0.48"/>
    </g>
    <g clip-path="url(#p155696d60b)">
     <use xlink:href="#C0_0_ccd7fe1d7c" x="191.299468" y="116.808497" style="fill: #ff7f0e; stroke: #ffffff; stroke-width: 0.48"/>
    </g>
    <g clip-path="url(#p155696d60b)">
     <use xlink:href="#C0_0_ccd7fe1d7c" x="179.162498" y="112.914157" style="fill: #ff7f0e; stroke: #ffffff; stroke-width: 0.48"/>
    </g>
    <g clip-path="url(#p155696d60b)">
     <use xlink:href="#C0_0_ccd7fe1d7c" x="142.751589" y="128.491516" style="fill: #ff7f0e; stroke: #ffffff; stroke-width: 0.48"/>
    </g>
    <g clip-path="url(#p155696d60b)">
     <use xlink:href="#C0_0_ccd7fe1d7c" x="82.066741" y="112.914157" style="fill: #ff7f0e; stroke: #ffffff; stroke-width: 0.48"/>
    </g>
    <g clip-path="url(#p155696d60b)">
     <use xlink:href="#C0_0_ccd7fe1d7c" x="118.47765" y="136.280196" style="fill: #ff7f0e; stroke: #ffffff; stroke-width: 0.48"/>
    </g>
    <g clip-path="url(#p155696d60b)">
     <use xlink:href="#C0_0_ccd7fe1d7c" x="203.436438" y="101.231137" style="fill: #ff7f0e; stroke: #ffffff; stroke-width: 0.48"/>
    </g>
    <g clip-path="url(#p155696d60b)">
     <use xlink:href="#C0_0_ccd7fe1d7c" x="154.888559" y="132.385856" style="fill: #ff7f0e; stroke: #ffffff; stroke-width: 0.48"/>
    </g>
    <g clip-path="url(#p155696d60b)">
     <use xlink:href="#C0_0_ccd7fe1d7c" x="118.47765" y="97.336797" style="fill: #ff7f0e; stroke: #ffffff; stroke-width: 0.48"/>
    </g>
    <g clip-path="url(#p155696d60b)">
     <use xlink:href="#C0_0_ccd7fe1d7c" x="154.888559" y="105.125477" style="fill: #ff7f0e; stroke: #ffffff; stroke-width: 0.48"/>
    </g>
    <g clip-path="url(#p155696d60b)">
     <use xlink:href="#C0_0_ccd7fe1d7c" x="167.025528" y="120.702836" style="fill: #ff7f0e; stroke: #ffffff; stroke-width: 0.48"/>
    </g>
    <g clip-path="url(#p155696d60b)">
     <use xlink:href="#C0_0_ccd7fe1d7c" x="179.162498" y="116.808497" style="fill: #ff7f0e; stroke: #ffffff; stroke-width: 0.48"/>
    </g>
    <g clip-path="url(#p155696d60b)">
     <use xlink:href="#C0_0_ccd7fe1d7c" x="154.888559" y="101.231137" style="fill: #ff7f0e; stroke: #ffffff; stroke-width: 0.48"/>
    </g>
    <g clip-path="url(#p155696d60b)">
     <use xlink:href="#C0_0_ccd7fe1d7c" x="179.162498" y="93.442457" style="fill: #ff7f0e; stroke: #ffffff; stroke-width: 0.48"/>
    </g>
    <g clip-path="url(#p155696d60b)">
     <use xlink:href="#C0_0_ccd7fe1d7c" x="167.025528" y="112.914157" style="fill: #ff7f0e; stroke: #ffffff; stroke-width: 0.48"/>
    </g>
    <g clip-path="url(#p155696d60b)">
     <use xlink:href="#C0_0_ccd7fe1d7c" x="130.614619" y="151.857555" style="fill: #ff7f0e; stroke: #ffffff; stroke-width: 0.48"/>
    </g>
    <g clip-path="url(#p155696d60b)">
     <use xlink:href="#C0_0_ccd7fe1d7c" x="106.34068" y="140.174536" style="fill: #ff7f0e; stroke: #ffffff; stroke-width: 0.48"/>
    </g>
    <g clip-path="url(#p155696d60b)">
     <use xlink:href="#C0_0_ccd7fe1d7c" x="106.34068" y="144.068876" style="fill: #ff7f0e; stroke: #ffffff; stroke-width: 0.48"/>
    </g>
    <g clip-path="url(#p155696d60b)">
     <use xlink:href="#C0_0_ccd7fe1d7c" x="142.751589" y="136.280196" style="fill: #ff7f0e; stroke: #ffffff; stroke-width: 0.48"/>
    </g>
    <g clip-path="url(#p155696d60b)">
     <use xlink:href="#C0_0_ccd7fe1d7c" x="142.751589" y="89.548117" style="fill: #ff7f0e; stroke: #ffffff; stroke-width: 0.48"/>
    </g>
    <g clip-path="url(#p155696d60b)">
     <use xlink:href="#C0_0_ccd7fe1d7c" x="179.162498" y="112.914157" style="fill: #ff7f0e; stroke: #ffffff; stroke-width: 0.48"/>
    </g>
    <g clip-path="url(#p155696d60b)">
     <use xlink:href="#C0_0_ccd7fe1d7c" x="227.710377" y="112.914157" style="fill: #ff7f0e; stroke: #ffffff; stroke-width: 0.48"/>
    </g>
    <g clip-path="url(#p155696d60b)">
     <use xlink:href="#C0_0_ccd7fe1d7c" x="191.299468" y="105.125477" style="fill: #ff7f0e; stroke: #ffffff; stroke-width: 0.48"/>
    </g>
    <g clip-path="url(#p155696d60b)">
     <use xlink:href="#C0_0_ccd7fe1d7c" x="94.20371" y="116.808497" style="fill: #ff7f0e; stroke: #ffffff; stroke-width: 0.48"/>
    </g>
    <g clip-path="url(#p155696d60b)">
     <use xlink:href="#C0_0_ccd7fe1d7c" x="179.162498" y="128.491516" style="fill: #ff7f0e; stroke: #ffffff; stroke-width: 0.48"/>
    </g>
    <g clip-path="url(#p155696d60b)">
     <use xlink:href="#C0_0_ccd7fe1d7c" x="118.47765" y="132.385856" style="fill: #ff7f0e; stroke: #ffffff; stroke-width: 0.48"/>
    </g>
    <g clip-path="url(#p155696d60b)">
     <use xlink:href="#C0_0_ccd7fe1d7c" x="130.614619" y="116.808497" style="fill: #ff7f0e; stroke: #ffffff; stroke-width: 0.48"/>
    </g>
    <g clip-path="url(#p155696d60b)">
     <use xlink:href="#C0_0_ccd7fe1d7c" x="179.162498" y="109.019817" style="fill: #ff7f0e; stroke: #ffffff; stroke-width: 0.48"/>
    </g>
    <g clip-path="url(#p155696d60b)">
     <use xlink:href="#C0_0_ccd7fe1d7c" x="130.614619" y="132.385856" style="fill: #ff7f0e; stroke: #ffffff; stroke-width: 0.48"/>
    </g>
    <g clip-path="url(#p155696d60b)">
     <use xlink:href="#C0_0_ccd7fe1d7c" x="94.20371" y="159.646235" style="fill: #ff7f0e; stroke: #ffffff; stroke-width: 0.48"/>
    </g>
    <g clip-path="url(#p155696d60b)">
     <use xlink:href="#C0_0_ccd7fe1d7c" x="142.751589" y="124.597176" style="fill: #ff7f0e; stroke: #ffffff; stroke-width: 0.48"/>
    </g>
    <g clip-path="url(#p155696d60b)">
     <use xlink:href="#C0_0_ccd7fe1d7c" x="179.162498" y="124.597176" style="fill: #ff7f0e; stroke: #ffffff; stroke-width: 0.48"/>
    </g>
    <g clip-path="url(#p155696d60b)">
     <use xlink:href="#C0_0_ccd7fe1d7c" x="167.025528" y="124.597176" style="fill: #ff7f0e; stroke: #ffffff; stroke-width: 0.48"/>
    </g>
    <g clip-path="url(#p155696d60b)">
     <use xlink:href="#C0_0_ccd7fe1d7c" x="167.025528" y="120.702836" style="fill: #ff7f0e; stroke: #ffffff; stroke-width: 0.48"/>
    </g>
    <g clip-path="url(#p155696d60b)">
     <use xlink:href="#C0_0_ccd7fe1d7c" x="118.47765" y="171.329255" style="fill: #ff7f0e; stroke: #ffffff; stroke-width: 0.48"/>
    </g>
    <g clip-path="url(#p155696d60b)">
     <use xlink:href="#C0_0_ccd7fe1d7c" x="154.888559" y="128.491516" style="fill: #ff7f0e; stroke: #ffffff; stroke-width: 0.48"/>
    </g>
    <g clip-path="url(#p155696d60b)">
     <use xlink:href="#C0_0_ccd7fe1d7c" x="215.573407" y="54.499059" style="fill: #2ca02c; stroke: #ffffff; stroke-width: 0.48"/>
    </g>
    <g clip-path="url(#p155696d60b)">
     <use xlink:href="#C0_0_ccd7fe1d7c" x="142.751589" y="89.548117" style="fill: #2ca02c; stroke: #ffffff; stroke-width: 0.48"/>
    </g>
    <g clip-path="url(#p155696d60b)">
     <use xlink:href="#C0_0_ccd7fe1d7c" x="179.162498" y="58.393399" style="fill: #2ca02c; stroke: #ffffff; stroke-width: 0.48"/>
    </g>
    <g clip-path="url(#p155696d60b)">
     <use xlink:href="#C0_0_ccd7fe1d7c" x="167.025528" y="70.076418" style="fill: #2ca02c; stroke: #ffffff; stroke-width: 0.48"/>
    </g>
    <g clip-path="url(#p155696d60b)">
     <use xlink:href="#C0_0_ccd7fe1d7c" x="179.162498" y="62.287738" style="fill: #2ca02c; stroke: #ffffff; stroke-width: 0.48"/>
    </g>
    <g clip-path="url(#p155696d60b)">
     <use xlink:href="#C0_0_ccd7fe1d7c" x="179.162498" y="31.13302" style="fill: #2ca02c; stroke: #ffffff; stroke-width: 0.48"/>
    </g>
    <g clip-path="url(#p155696d60b)">
     <use xlink:href="#C0_0_ccd7fe1d7c" x="118.47765" y="112.914157" style="fill: #2ca02c; stroke: #ffffff; stroke-width: 0.48"/>
    </g>
    <g clip-path="url(#p155696d60b)">
     <use xlink:href="#C0_0_ccd7fe1d7c" x="167.025528" y="42.816039" style="fill: #2ca02c; stroke: #ffffff; stroke-width: 0.48"/>
    </g>
    <g clip-path="url(#p155696d60b)">
     <use xlink:href="#C0_0_ccd7fe1d7c" x="118.47765" y="62.287738" style="fill: #2ca02c; stroke: #ffffff; stroke-width: 0.48"/>
    </g>
    <g clip-path="url(#p155696d60b)">
     <use xlink:href="#C0_0_ccd7fe1d7c" x="251.984316" y="50.604719" style="fill: #2ca02c; stroke: #ffffff; stroke-width: 0.48"/>
    </g>
    <g clip-path="url(#p155696d60b)">
     <use xlink:href="#C0_0_ccd7fe1d7c" x="203.436438" y="89.548117" style="fill: #2ca02c; stroke: #ffffff; stroke-width: 0.48"/>
    </g>
    <g clip-path="url(#p155696d60b)">
     <use xlink:href="#C0_0_ccd7fe1d7c" x="142.751589" y="81.759438" style="fill: #2ca02c; stroke: #ffffff; stroke-width: 0.48"/>
    </g>
    <g clip-path="url(#p155696d60b)">
     <use xlink:href="#C0_0_ccd7fe1d7c" x="179.162498" y="73.970758" style="fill: #2ca02c; stroke: #ffffff; stroke-width: 0.48"/>
    </g>
    <g clip-path="url(#p155696d60b)">
     <use xlink:href="#C0_0_ccd7fe1d7c" x="118.47765" y="93.442457" style="fill: #2ca02c; stroke: #ffffff; stroke-width: 0.48"/>
    </g>
    <g clip-path="url(#p155696d60b)">
     <use xlink:href="#C0_0_ccd7fe1d7c" x="154.888559" y="89.548117" style="fill: #2ca02c; stroke: #ffffff; stroke-width: 0.48"/>
    </g>
    <g clip-path="url(#p155696d60b)">
     <use xlink:href="#C0_0_ccd7fe1d7c" x="203.436438" y="81.759438" style="fill: #2ca02c; stroke: #ffffff; stroke-width: 0.48"/>
    </g>
    <g clip-path="url(#p155696d60b)">
     <use xlink:href="#C0_0_ccd7fe1d7c" x="179.162498" y="73.970758" style="fill: #2ca02c; stroke: #ffffff; stroke-width: 0.48"/>
    </g>
    <g clip-path="url(#p155696d60b)">
     <use xlink:href="#C0_0_ccd7fe1d7c" x="276.258256" y="27.23868" style="fill: #2ca02c; stroke: #ffffff; stroke-width: 0.48"/>
    </g>
    <g clip-path="url(#p155696d60b)">
     <use xlink:href="#C0_0_ccd7fe1d7c" x="130.614619" y="19.45" style="fill: #2ca02c; stroke: #ffffff; stroke-width: 0.48"/>
    </g>
    <g clip-path="url(#p155696d60b)">
     <use xlink:href="#C0_0_ccd7fe1d7c" x="82.066741" y="93.442457" style="fill: #2ca02c; stroke: #ffffff; stroke-width: 0.48"/>
    </g>
    <g clip-path="url(#p155696d60b)">
     <use xlink:href="#C0_0_ccd7fe1d7c" x="203.436438" y="66.182078" style="fill: #2ca02c; stroke: #ffffff; stroke-width: 0.48"/>
    </g>
    <g clip-path="url(#p155696d60b)">
     <use xlink:href="#C0_0_ccd7fe1d7c" x="154.888559" y="97.336797" style="fill: #2ca02c; stroke: #ffffff; stroke-width: 0.48"/>
    </g>
    <g clip-path="url(#p155696d60b)">
     <use xlink:href="#C0_0_ccd7fe1d7c" x="154.888559" y="27.23868" style="fill: #2ca02c; stroke: #ffffff; stroke-width: 0.48"/>
    </g>
    <g clip-path="url(#p155696d60b)">
     <use xlink:href="#C0_0_ccd7fe1d7c" x="142.751589" y="97.336797" style="fill: #2ca02c; stroke: #ffffff; stroke-width: 0.48"/>
    </g>
    <g clip-path="url(#p155696d60b)">
     <use xlink:href="#C0_0_ccd7fe1d7c" x="215.573407" y="66.182078" style="fill: #2ca02c; stroke: #ffffff; stroke-width: 0.48"/>
    </g>
    <g clip-path="url(#p155696d60b)">
     <use xlink:href="#C0_0_ccd7fe1d7c" x="203.436438" y="54.499059" style="fill: #2ca02c; stroke: #ffffff; stroke-width: 0.48"/>
    </g>
    <g clip-path="url(#p155696d60b)">
     <use xlink:href="#C0_0_ccd7fe1d7c" x="154.888559" y="101.231137" style="fill: #2ca02c; stroke: #ffffff; stroke-width: 0.48"/>
    </g>
    <g clip-path="url(#p155696d60b)">
     <use xlink:href="#C0_0_ccd7fe1d7c" x="179.162498" y="97.336797" style="fill: #2ca02c; stroke: #ffffff; stroke-width: 0.48"/>
    </g>
    <g clip-path="url(#p155696d60b)">
     <use xlink:href="#C0_0_ccd7fe1d7c" x="154.888559" y="70.076418" style="fill: #2ca02c; stroke: #ffffff; stroke-width: 0.48"/>
    </g>
    <g clip-path="url(#p155696d60b)">
     <use xlink:href="#C0_0_ccd7fe1d7c" x="179.162498" y="62.287738" style="fill: #2ca02c; stroke: #ffffff; stroke-width: 0.48"/>
    </g>
    <g clip-path="url(#p155696d60b)">
     <use xlink:href="#C0_0_ccd7fe1d7c" x="154.888559" y="50.604719" style="fill: #2ca02c; stroke: #ffffff; stroke-width: 0.48"/>
    </g>
    <g clip-path="url(#p155696d60b)">
     <use xlink:href="#C0_0_ccd7fe1d7c" x="276.258256" y="38.921699" style="fill: #2ca02c; stroke: #ffffff; stroke-width: 0.48"/>
    </g>
    <g clip-path="url(#p155696d60b)">
     <use xlink:href="#C0_0_ccd7fe1d7c" x="154.888559" y="70.076418" style="fill: #2ca02c; stroke: #ffffff; stroke-width: 0.48"/>
    </g>
    <g clip-path="url(#p155696d60b)">
     <use xlink:href="#C0_0_ccd7fe1d7c" x="154.888559" y="89.548117" style="fill: #2ca02c; stroke: #ffffff; stroke-width: 0.48"/>
    </g>
    <g clip-path="url(#p155696d60b)">
     <use xlink:href="#C0_0_ccd7fe1d7c" x="130.614619" y="70.076418" style="fill: #2ca02c; stroke: #ffffff; stroke-width: 0.48"/>
    </g>
    <g clip-path="url(#p155696d60b)">
     <use xlink:href="#C0_0_ccd7fe1d7c" x="179.162498" y="50.604719" style="fill: #2ca02c; stroke: #ffffff; stroke-width: 0.48"/>
    </g>
    <g clip-path="url(#p155696d60b)">
     <use xlink:href="#C0_0_ccd7fe1d7c" x="227.710377" y="70.076418" style="fill: #2ca02c; stroke: #ffffff; stroke-width: 0.48"/>
    </g>
    <g clip-path="url(#p155696d60b)">
     <use xlink:href="#C0_0_ccd7fe1d7c" x="191.299468" y="73.970758" style="fill: #2ca02c; stroke: #ffffff; stroke-width: 0.48"/>
    </g>
    <g clip-path="url(#p155696d60b)">
     <use xlink:href="#C0_0_ccd7fe1d7c" x="179.162498" y="101.231137" style="fill: #2ca02c; stroke: #ffffff; stroke-width: 0.48"/>
    </g>
    <g clip-path="url(#p155696d60b)">
     <use xlink:href="#C0_0_ccd7fe1d7c" x="191.299468" y="77.865098" style="fill: #2ca02c; stroke: #ffffff; stroke-width: 0.48"/>
    </g>
    <g clip-path="url(#p155696d60b)">
     <use xlink:href="#C0_0_ccd7fe1d7c" x="191.299468" y="70.076418" style="fill: #2ca02c; stroke: #ffffff; stroke-width: 0.48"/>
    </g>
    <g clip-path="url(#p155696d60b)">
     <use xlink:href="#C0_0_ccd7fe1d7c" x="191.299468" y="89.548117" style="fill: #2ca02c; stroke: #ffffff; stroke-width: 0.48"/>
    </g>
    <g clip-path="url(#p155696d60b)">
     <use xlink:href="#C0_0_ccd7fe1d7c" x="142.751589" y="89.548117" style="fill: #2ca02c; stroke: #ffffff; stroke-width: 0.48"/>
    </g>
    <g clip-path="url(#p155696d60b)">
     <use xlink:href="#C0_0_ccd7fe1d7c" x="203.436438" y="58.393399" style="fill: #2ca02c; stroke: #ffffff; stroke-width: 0.48"/>
    </g>
    <g clip-path="url(#p155696d60b)">
     <use xlink:href="#C0_0_ccd7fe1d7c" x="215.573407" y="66.182078" style="fill: #2ca02c; stroke: #ffffff; stroke-width: 0.48"/>
    </g>
    <g clip-path="url(#p155696d60b)">
     <use xlink:href="#C0_0_ccd7fe1d7c" x="179.162498" y="85.653778" style="fill: #2ca02c; stroke: #ffffff; stroke-width: 0.48"/>
    </g>
    <g clip-path="url(#p155696d60b)">
     <use xlink:href="#C0_0_ccd7fe1d7c" x="118.47765" y="93.442457" style="fill: #2ca02c; stroke: #ffffff; stroke-width: 0.48"/>
    </g>
    <g clip-path="url(#p155696d60b)">
     <use xlink:href="#C0_0_ccd7fe1d7c" x="179.162498" y="85.653778" style="fill: #2ca02c; stroke: #ffffff; stroke-width: 0.48"/>
    </g>
    <g clip-path="url(#p155696d60b)">
     <use xlink:href="#C0_0_ccd7fe1d7c" x="227.710377" y="77.865098" style="fill: #2ca02c; stroke: #ffffff; stroke-width: 0.48"/>
    </g>
    <g clip-path="url(#p155696d60b)">
     <use xlink:href="#C0_0_ccd7fe1d7c" x="179.162498" y="89.548117" style="fill: #2ca02c; stroke: #ffffff; stroke-width: 0.48"/>
    </g>
   </g>
   <g id="matplotlib.axis_1">
    <g id="xtick_1">
     <g id="line2d_1">
      <defs>
       <path id="mde35c7956e" d="M 0 0 
L 0 10 
" style="stroke: #3e3e3e; stroke-width: 0.5"/>
      </defs>
      <g>
       <use xlink:href="#mde35c7956e" x="57.792801" y="276.7" style="fill: #3e3e3e; stroke: #3e3e3e; stroke-width: 0.5"/>
      </g>
     </g>
     <g id="text_1">
      <!-- 2.0 -->
      <g style="fill: #5f5f5f" transform="translate(50.842801 297.373437) scale(0.1 -0.1)">
       <defs>
        <path id="Helvetica-32" d="M 200 0 
Q 231 578 439 1006 
Q 647 1434 1250 1784 
L 1850 2131 
Q 2253 2366 2416 2531 
Q 2672 2791 2672 3125 
Q 2672 3516 2437 3745 
Q 2203 3975 1813 3975 
Q 1234 3975 1013 3538 
Q 894 3303 881 2888 
L 309 2888 
Q 319 3472 525 3841 
Q 891 4491 1816 4491 
Q 2584 4491 2939 4075 
Q 3294 3659 3294 3150 
Q 3294 2613 2916 2231 
Q 2697 2009 2131 1694 
L 1703 1456 
Q 1397 1288 1222 1134 
Q 909 863 828 531 
L 3272 531 
L 3272 0 
L 200 0 
z
" transform="scale(0.015625)"/>
        <path id="Helvetica-2e" d="M 547 681 
L 1200 681 
L 1200 0 
L 547 0 
L 547 681 
z
" transform="scale(0.015625)"/>
        <path id="Helvetica-30" d="M 1731 4475 
Q 2600 4475 2988 3759 
Q 3288 3206 3288 2244 
Q 3288 1331 3016 734 
Q 2622 -122 1728 -122 
Q 922 -122 528 578 
Q 200 1163 200 2147 
Q 200 2909 397 3456 
Q 766 4475 1731 4475 
z
M 1725 391 
Q 2163 391 2422 778 
Q 2681 1166 2681 2222 
Q 2681 2984 2493 3476 
Q 2306 3969 1766 3969 
Q 1269 3969 1039 3501 
Q 809 3034 809 2125 
Q 809 1441 956 1025 
Q 1181 391 1725 391 
z
" transform="scale(0.015625)"/>
       </defs>
       <use xlink:href="#Helvetica-32"/>
       <use xlink:href="#Helvetica-2e" x="55.615234"/>
       <use xlink:href="#Helvetica-30" x="83.398438"/>
      </g>
     </g>
    </g>
    <g id="xtick_2">
     <g id="line2d_2">
      <g>
       <use xlink:href="#mde35c7956e" x="118.47765" y="276.7" style="fill: #3e3e3e; stroke: #3e3e3e; stroke-width: 0.5"/>
      </g>
     </g>
     <g id="text_2">
      <!-- 2.5 -->
      <g style="fill: #5f5f5f" transform="translate(111.52765 297.373437) scale(0.1 -0.1)">
       <defs>
        <path id="Helvetica-35" d="M 791 1141 
Q 847 659 1238 475 
Q 1438 381 1700 381 
Q 2200 381 2440 700 
Q 2681 1019 2681 1406 
Q 2681 1875 2395 2131 
Q 2109 2388 1709 2388 
Q 1419 2388 1211 2275 
Q 1003 2163 856 1963 
L 369 1991 
L 709 4400 
L 3034 4400 
L 3034 3856 
L 1131 3856 
L 941 2613 
Q 1097 2731 1238 2791 
Q 1488 2894 1816 2894 
Q 2431 2894 2859 2497 
Q 3288 2100 3288 1491 
Q 3288 856 2895 371 
Q 2503 -113 1644 -113 
Q 1097 -113 676 195 
Q 256 503 206 1141 
L 791 1141 
z
" transform="scale(0.015625)"/>
       </defs>
       <use xlink:href="#Helvetica-32"/>
       <use xlink:href="#Helvetica-2e" x="55.615234"/>
       <use xlink:href="#Helvetica-35" x="83.398438"/>
      </g>
     </g>
    </g>
    <g id="xtick_3">
     <g id="line2d_3">
      <g>
       <use xlink:href="#mde35c7956e" x="179.162498" y="276.7" style="fill: #3e3e3e; stroke: #3e3e3e; stroke-width: 0.5"/>
      </g>
     </g>
     <g id="text_3">
      <!-- 3.0 -->
      <g style="fill: #5f5f5f" transform="translate(172.212498 297.373437) scale(0.1 -0.1)">
       <defs>
        <path id="Helvetica-33" d="M 1663 -122 
Q 869 -122 511 314 
Q 153 750 153 1375 
L 741 1375 
Q 778 941 903 744 
Q 1122 391 1694 391 
Q 2138 391 2406 628 
Q 2675 866 2675 1241 
Q 2675 1703 2392 1887 
Q 2109 2072 1606 2072 
Q 1550 2072 1492 2070 
Q 1434 2069 1375 2066 
L 1375 2563 
Q 1463 2553 1522 2550 
Q 1581 2547 1650 2547 
Q 1966 2547 2169 2647 
Q 2525 2822 2525 3272 
Q 2525 3606 2287 3787 
Q 2050 3969 1734 3969 
Q 1172 3969 956 3594 
Q 838 3388 822 3006 
L 266 3006 
Q 266 3506 466 3856 
Q 809 4481 1675 4481 
Q 2359 4481 2734 4176 
Q 3109 3872 3109 3294 
Q 3109 2881 2888 2625 
Q 2750 2466 2531 2375 
Q 2884 2278 3082 2001 
Q 3281 1725 3281 1325 
Q 3281 684 2859 281 
Q 2438 -122 1663 -122 
z
" transform="scale(0.015625)"/>
       </defs>
       <use xlink:href="#Helvetica-33"/>
       <use xlink:href="#Helvetica-2e" x="55.615234"/>
       <use xlink:href="#Helvetica-30" x="83.398438"/>
      </g>
     </g>
    </g>
    <g id="xtick_4">
     <g id="line2d_4">
      <g>
       <use xlink:href="#mde35c7956e" x="239.847347" y="276.7" style="fill: #3e3e3e; stroke: #3e3e3e; stroke-width: 0.5"/>
      </g>
     </g>
     <g id="text_4">
      <!-- 3.5 -->
      <g style="fill: #5f5f5f" transform="translate(232.897347 297.373437) scale(0.1 -0.1)">
       <use xlink:href="#Helvetica-33"/>
       <use xlink:href="#Helvetica-2e" x="55.615234"/>
       <use xlink:href="#Helvetica-35" x="83.398438"/>
      </g>
     </g>
    </g>
    <g id="xtick_5">
     <g id="line2d_5">
      <g>
       <use xlink:href="#mde35c7956e" x="300.532195" y="276.7" style="fill: #3e3e3e; stroke: #3e3e3e; stroke-width: 0.5"/>
      </g>
     </g>
     <g id="text_5">
      <!-- 4.0 -->
      <g style="fill: #5f5f5f" transform="translate(293.582195 297.373437) scale(0.1 -0.1)">
       <defs>
        <path id="Helvetica-34" d="M 2116 1584 
L 2116 3613 
L 681 1584 
L 2116 1584 
z
M 2125 0 
L 2125 1094 
L 163 1094 
L 163 1644 
L 2213 4488 
L 2688 4488 
L 2688 1584 
L 3347 1584 
L 3347 1094 
L 2688 1094 
L 2688 0 
L 2125 0 
z
" transform="scale(0.015625)"/>
       </defs>
       <use xlink:href="#Helvetica-34"/>
       <use xlink:href="#Helvetica-2e" x="55.615234"/>
       <use xlink:href="#Helvetica-30" x="83.398438"/>
      </g>
     </g>
    </g>
    <g id="xtick_6">
     <g id="line2d_6">
      <g>
       <use xlink:href="#mde35c7956e" x="361.217044" y="276.7" style="fill: #3e3e3e; stroke: #3e3e3e; stroke-width: 0.5"/>
      </g>
     </g>
     <g id="text_6">
      <!-- 4.5 -->
      <g style="fill: #5f5f5f" transform="translate(354.267044 297.373437) scale(0.1 -0.1)">
       <use xlink:href="#Helvetica-34"/>
       <use xlink:href="#Helvetica-2e" x="55.615234"/>
       <use xlink:href="#Helvetica-35" x="83.398438"/>
      </g>
     </g>
    </g>
    <g id="text_7">
     <!-- Sepal Width -->
     <g transform="translate(165.696594 313.649375) scale(0.14 -0.14)">
      <defs>
       <path id="ArialMT-53" d="M 288 1472 
L 859 1522 
Q 900 1178 1048 958 
Q 1197 738 1509 602 
Q 1822 466 2213 466 
Q 2559 466 2825 569 
Q 3091 672 3220 851 
Q 3350 1031 3350 1244 
Q 3350 1459 3225 1620 
Q 3100 1781 2813 1891 
Q 2628 1963 1997 2114 
Q 1366 2266 1113 2400 
Q 784 2572 623 2826 
Q 463 3081 463 3397 
Q 463 3744 659 4045 
Q 856 4347 1234 4503 
Q 1613 4659 2075 4659 
Q 2584 4659 2973 4495 
Q 3363 4331 3572 4012 
Q 3781 3694 3797 3291 
L 3216 3247 
Q 3169 3681 2898 3903 
Q 2628 4125 2100 4125 
Q 1550 4125 1298 3923 
Q 1047 3722 1047 3438 
Q 1047 3191 1225 3031 
Q 1400 2872 2139 2705 
Q 2878 2538 3153 2413 
Q 3553 2228 3743 1945 
Q 3934 1663 3934 1294 
Q 3934 928 3725 604 
Q 3516 281 3123 101 
Q 2731 -78 2241 -78 
Q 1619 -78 1198 103 
Q 778 284 539 648 
Q 300 1013 288 1472 
z
" transform="scale(0.015625)"/>
       <path id="ArialMT-65" d="M 2694 1069 
L 3275 997 
Q 3138 488 2766 206 
Q 2394 -75 1816 -75 
Q 1088 -75 661 373 
Q 234 822 234 1631 
Q 234 2469 665 2931 
Q 1097 3394 1784 3394 
Q 2450 3394 2872 2941 
Q 3294 2488 3294 1666 
Q 3294 1616 3291 1516 
L 816 1516 
Q 847 969 1125 678 
Q 1403 388 1819 388 
Q 2128 388 2347 550 
Q 2566 713 2694 1069 
z
M 847 1978 
L 2700 1978 
Q 2663 2397 2488 2606 
Q 2219 2931 1791 2931 
Q 1403 2931 1139 2672 
Q 875 2413 847 1978 
z
" transform="scale(0.015625)"/>
       <path id="ArialMT-70" d="M 422 -1272 
L 422 3319 
L 934 3319 
L 934 2888 
Q 1116 3141 1344 3267 
Q 1572 3394 1897 3394 
Q 2322 3394 2647 3175 
Q 2972 2956 3137 2557 
Q 3303 2159 3303 1684 
Q 3303 1175 3120 767 
Q 2938 359 2589 142 
Q 2241 -75 1856 -75 
Q 1575 -75 1351 44 
Q 1128 163 984 344 
L 984 -1272 
L 422 -1272 
z
M 931 1641 
Q 931 1000 1190 694 
Q 1450 388 1819 388 
Q 2194 388 2461 705 
Q 2728 1022 2728 1688 
Q 2728 2322 2467 2637 
Q 2206 2953 1844 2953 
Q 1484 2953 1207 2617 
Q 931 2281 931 1641 
z
" transform="scale(0.015625)"/>
       <path id="ArialMT-61" d="M 2588 409 
Q 2275 144 1986 34 
Q 1697 -75 1366 -75 
Q 819 -75 525 192 
Q 231 459 231 875 
Q 231 1119 342 1320 
Q 453 1522 633 1644 
Q 813 1766 1038 1828 
Q 1203 1872 1538 1913 
Q 2219 1994 2541 2106 
Q 2544 2222 2544 2253 
Q 2544 2597 2384 2738 
Q 2169 2928 1744 2928 
Q 1347 2928 1158 2789 
Q 969 2650 878 2297 
L 328 2372 
Q 403 2725 575 2942 
Q 747 3159 1072 3276 
Q 1397 3394 1825 3394 
Q 2250 3394 2515 3294 
Q 2781 3194 2906 3042 
Q 3031 2891 3081 2659 
Q 3109 2516 3109 2141 
L 3109 1391 
Q 3109 606 3145 398 
Q 3181 191 3288 0 
L 2700 0 
Q 2613 175 2588 409 
z
M 2541 1666 
Q 2234 1541 1622 1453 
Q 1275 1403 1131 1340 
Q 988 1278 909 1158 
Q 831 1038 831 891 
Q 831 666 1001 516 
Q 1172 366 1500 366 
Q 1825 366 2078 508 
Q 2331 650 2450 897 
Q 2541 1088 2541 1459 
L 2541 1666 
z
" transform="scale(0.015625)"/>
       <path id="ArialMT-6c" d="M 409 0 
L 409 4581 
L 972 4581 
L 972 0 
L 409 0 
z
" transform="scale(0.015625)"/>
       <path id="ArialMT-20" transform="scale(0.015625)"/>
       <path id="ArialMT-57" d="M 1294 0 
L 78 4581 
L 700 4581 
L 1397 1578 
Q 1509 1106 1591 641 
Q 1766 1375 1797 1488 
L 2669 4581 
L 3400 4581 
L 4056 2263 
Q 4303 1400 4413 641 
Q 4500 1075 4641 1638 
L 5359 4581 
L 5969 4581 
L 4713 0 
L 4128 0 
L 3163 3491 
Q 3041 3928 3019 4028 
Q 2947 3713 2884 3491 
L 1913 0 
L 1294 0 
z
" transform="scale(0.015625)"/>
       <path id="ArialMT-69" d="M 425 3934 
L 425 4581 
L 988 4581 
L 988 3934 
L 425 3934 
z
M 425 0 
L 425 3319 
L 988 3319 
L 988 0 
L 425 0 
z
" transform="scale(0.015625)"/>
       <path id="ArialMT-64" d="M 2575 0 
L 2575 419 
Q 2259 -75 1647 -75 
Q 1250 -75 917 144 
Q 584 363 401 755 
Q 219 1147 219 1656 
Q 219 2153 384 2558 
Q 550 2963 881 3178 
Q 1213 3394 1622 3394 
Q 1922 3394 2156 3267 
Q 2391 3141 2538 2938 
L 2538 4581 
L 3097 4581 
L 3097 0 
L 2575 0 
z
M 797 1656 
Q 797 1019 1065 703 
Q 1334 388 1700 388 
Q 2069 388 2326 689 
Q 2584 991 2584 1609 
Q 2584 2291 2321 2609 
Q 2059 2928 1675 2928 
Q 1300 2928 1048 2622 
Q 797 2316 797 1656 
z
" transform="scale(0.015625)"/>
       <path id="ArialMT-74" d="M 1650 503 
L 1731 6 
Q 1494 -44 1306 -44 
Q 1000 -44 831 53 
Q 663 150 594 308 
Q 525 466 525 972 
L 525 2881 
L 113 2881 
L 113 3319 
L 525 3319 
L 525 4141 
L 1084 4478 
L 1084 3319 
L 1650 3319 
L 1650 2881 
L 1084 2881 
L 1084 941 
Q 1084 700 1114 631 
Q 1144 563 1211 522 
Q 1278 481 1403 481 
Q 1497 481 1650 503 
z
" transform="scale(0.015625)"/>
       <path id="ArialMT-68" d="M 422 0 
L 422 4581 
L 984 4581 
L 984 2938 
Q 1378 3394 1978 3394 
Q 2347 3394 2619 3248 
Q 2891 3103 3008 2847 
Q 3125 2591 3125 2103 
L 3125 0 
L 2563 0 
L 2563 2103 
Q 2563 2525 2380 2717 
Q 2197 2909 1863 2909 
Q 1613 2909 1392 2779 
Q 1172 2650 1078 2428 
Q 984 2206 984 1816 
L 984 0 
L 422 0 
z
" transform="scale(0.015625)"/>
      </defs>
      <use xlink:href="#ArialMT-53"/>
      <use xlink:href="#ArialMT-65" x="66.699219"/>
      <use xlink:href="#ArialMT-70" x="122.314453"/>
      <use xlink:href="#ArialMT-61" x="177.929688"/>
      <use xlink:href="#ArialMT-6c" x="233.544922"/>
      <use xlink:href="#ArialMT-20" x="255.761719"/>
      <use xlink:href="#ArialMT-57" x="283.544922"/>
      <use xlink:href="#ArialMT-69" x="377.929688"/>
      <use xlink:href="#ArialMT-64" x="400.146484"/>
      <use xlink:href="#ArialMT-74" x="455.761719"/>
      <use xlink:href="#ArialMT-68" x="483.544922"/>
     </g>
    </g>
   </g>
   <g id="matplotlib.axis_2">
    <g id="ytick_1">
     <g id="line2d_7">
      <defs>
       <path id="m4fe8686790" d="M 0 0 
L -10 0 
" style="stroke: #3e3e3e; stroke-width: 0.5"/>
      </defs>
      <g>
       <use xlink:href="#m4fe8686790" x="43.228438" y="249.216052" style="fill: #3e3e3e; stroke: #3e3e3e; stroke-width: 0.5"/>
      </g>
     </g>
     <g id="text_8">
      <!-- 1 -->
      <g style="fill: #5f5f5f" transform="translate(24.1675 252.802771) scale(0.1 -0.1)">
       <defs>
        <path id="Helvetica-31" d="M 613 3169 
L 613 3600 
Q 1222 3659 1462 3798 
Q 1703 3938 1822 4456 
L 2266 4456 
L 2266 0 
L 1666 0 
L 1666 3169 
L 613 3169 
z
" transform="scale(0.015625)"/>
       </defs>
       <use xlink:href="#Helvetica-31"/>
      </g>
     </g>
    </g>
    <g id="ytick_2">
     <g id="line2d_8">
      <g>
       <use xlink:href="#m4fe8686790" x="43.228438" y="210.272653" style="fill: #3e3e3e; stroke: #3e3e3e; stroke-width: 0.5"/>
      </g>
     </g>
     <g id="text_9">
      <!-- 2 -->
      <g style="fill: #5f5f5f" transform="translate(24.1675 213.859372) scale(0.1 -0.1)">
       <use xlink:href="#Helvetica-32"/>
      </g>
     </g>
    </g>
    <g id="ytick_3">
     <g id="line2d_9">
      <g>
       <use xlink:href="#m4fe8686790" x="43.228438" y="171.329255" style="fill: #3e3e3e; stroke: #3e3e3e; stroke-width: 0.5"/>
      </g>
     </g>
     <g id="text_10">
      <!-- 3 -->
      <g style="fill: #5f5f5f" transform="translate(24.1675 174.915973) scale(0.1 -0.1)">
       <use xlink:href="#Helvetica-33"/>
      </g>
     </g>
    </g>
    <g id="ytick_4">
     <g id="line2d_10">
      <g>
       <use xlink:href="#m4fe8686790" x="43.228438" y="132.385856" style="fill: #3e3e3e; stroke: #3e3e3e; stroke-width: 0.5"/>
      </g>
     </g>
     <g id="text_11">
      <!-- 4 -->
      <g style="fill: #5f5f5f" transform="translate(24.1675 135.972575) scale(0.1 -0.1)">
       <use xlink:href="#Helvetica-34"/>
      </g>
     </g>
    </g>
    <g id="ytick_5">
     <g id="line2d_11">
      <g>
       <use xlink:href="#m4fe8686790" x="43.228438" y="93.442457" style="fill: #3e3e3e; stroke: #3e3e3e; stroke-width: 0.5"/>
      </g>
     </g>
     <g id="text_12">
      <!-- 5 -->
      <g style="fill: #5f5f5f" transform="translate(24.1675 97.029176) scale(0.1 -0.1)">
       <use xlink:href="#Helvetica-35"/>
      </g>
     </g>
    </g>
    <g id="ytick_6">
     <g id="line2d_12">
      <g>
       <use xlink:href="#m4fe8686790" x="43.228438" y="54.499059" style="fill: #3e3e3e; stroke: #3e3e3e; stroke-width: 0.5"/>
      </g>
     </g>
     <g id="text_13">
      <!-- 6 -->
      <g style="fill: #5f5f5f" transform="translate(24.1675 58.085777) scale(0.1 -0.1)">
       <defs>
        <path id="Helvetica-36" d="M 1872 4494 
Q 2622 4494 2917 4105 
Q 3213 3716 3213 3303 
L 2656 3303 
Q 2606 3569 2497 3719 
Q 2294 4000 1881 4000 
Q 1409 4000 1131 3564 
Q 853 3128 822 2316 
Q 1016 2600 1309 2741 
Q 1578 2866 1909 2866 
Q 2472 2866 2890 2506 
Q 3309 2147 3309 1434 
Q 3309 825 2912 354 
Q 2516 -116 1781 -116 
Q 1153 -116 697 361 
Q 241 838 241 1966 
Q 241 2800 444 3381 
Q 834 4494 1872 4494 
z
M 1831 384 
Q 2275 384 2495 682 
Q 2716 981 2716 1388 
Q 2716 1731 2519 2042 
Q 2322 2353 1803 2353 
Q 1441 2353 1167 2112 
Q 894 1872 894 1388 
Q 894 963 1142 673 
Q 1391 384 1831 384 
z
" transform="scale(0.015625)"/>
       </defs>
       <use xlink:href="#Helvetica-36"/>
      </g>
     </g>
    </g>
    <g id="ytick_7">
     <g id="line2d_13">
      <g>
       <use xlink:href="#m4fe8686790" x="43.228438" y="15.55566" style="fill: #3e3e3e; stroke: #3e3e3e; stroke-width: 0.5"/>
      </g>
     </g>
     <g id="text_14">
      <!-- 7 -->
      <g style="fill: #5f5f5f" transform="translate(24.1675 19.142379) scale(0.1 -0.1)">
       <defs>
        <path id="Helvetica-37" d="M 3347 4400 
L 3347 3909 
Q 3131 3700 2773 3181 
Q 2416 2663 2141 2063 
Q 1869 1478 1728 997 
Q 1638 688 1494 0 
L 872 0 
Q 1084 1281 1809 2550 
Q 2238 3294 2709 3834 
L 234 3834 
L 234 4400 
L 3347 4400 
z
" transform="scale(0.015625)"/>
       </defs>
       <use xlink:href="#Helvetica-37"/>
      </g>
     </g>
    </g>
    <g id="text_15">
     <!-- Petal Length -->
     <g transform="translate(17.220938 181.257187) rotate(-90) scale(0.14 -0.14)">
      <defs>
       <path id="ArialMT-50" d="M 494 0 
L 494 4581 
L 2222 4581 
Q 2678 4581 2919 4538 
Q 3256 4481 3484 4323 
Q 3713 4166 3852 3881 
Q 3991 3597 3991 3256 
Q 3991 2672 3619 2267 
Q 3247 1863 2275 1863 
L 1100 1863 
L 1100 0 
L 494 0 
z
M 1100 2403 
L 2284 2403 
Q 2872 2403 3119 2622 
Q 3366 2841 3366 3238 
Q 3366 3525 3220 3729 
Q 3075 3934 2838 4000 
Q 2684 4041 2272 4041 
L 1100 4041 
L 1100 2403 
z
" transform="scale(0.015625)"/>
       <path id="ArialMT-4c" d="M 469 0 
L 469 4581 
L 1075 4581 
L 1075 541 
L 3331 541 
L 3331 0 
L 469 0 
z
" transform="scale(0.015625)"/>
       <path id="ArialMT-6e" d="M 422 0 
L 422 3319 
L 928 3319 
L 928 2847 
Q 1294 3394 1984 3394 
Q 2284 3394 2536 3286 
Q 2788 3178 2913 3003 
Q 3038 2828 3088 2588 
Q 3119 2431 3119 2041 
L 3119 0 
L 2556 0 
L 2556 2019 
Q 2556 2363 2490 2533 
Q 2425 2703 2258 2804 
Q 2091 2906 1866 2906 
Q 1506 2906 1245 2678 
Q 984 2450 984 1813 
L 984 0 
L 422 0 
z
" transform="scale(0.015625)"/>
       <path id="ArialMT-67" d="M 319 -275 
L 866 -356 
Q 900 -609 1056 -725 
Q 1266 -881 1628 -881 
Q 2019 -881 2231 -725 
Q 2444 -569 2519 -288 
Q 2563 -116 2559 434 
Q 2191 0 1641 0 
Q 956 0 581 494 
Q 206 988 206 1678 
Q 206 2153 378 2554 
Q 550 2956 876 3175 
Q 1203 3394 1644 3394 
Q 2231 3394 2613 2919 
L 2613 3319 
L 3131 3319 
L 3131 450 
Q 3131 -325 2973 -648 
Q 2816 -972 2473 -1159 
Q 2131 -1347 1631 -1347 
Q 1038 -1347 672 -1080 
Q 306 -813 319 -275 
z
M 784 1719 
Q 784 1066 1043 766 
Q 1303 466 1694 466 
Q 2081 466 2343 764 
Q 2606 1063 2606 1700 
Q 2606 2309 2336 2618 
Q 2066 2928 1684 2928 
Q 1309 2928 1046 2623 
Q 784 2319 784 1719 
z
" transform="scale(0.015625)"/>
      </defs>
      <use xlink:href="#ArialMT-50"/>
      <use xlink:href="#ArialMT-65" x="66.699219"/>
      <use xlink:href="#ArialMT-74" x="122.314453"/>
      <use xlink:href="#ArialMT-61" x="150.097656"/>
      <use xlink:href="#ArialMT-6c" x="205.712891"/>
      <use xlink:href="#ArialMT-20" x="227.929688"/>
      <use xlink:href="#ArialMT-4c" x="255.712891"/>
      <use xlink:href="#ArialMT-65" x="311.328125"/>
      <use xlink:href="#ArialMT-6e" x="366.943359"/>
      <use xlink:href="#ArialMT-67" x="422.558594"/>
      <use xlink:href="#ArialMT-74" x="478.173828"/>
      <use xlink:href="#ArialMT-68" x="505.957031"/>
     </g>
    </g>
   </g>
   <g id="line2d_14">
    <path d="M 57.792801 70.360411 
L 60.735097 71.998603 
L 63.677393 73.636795 
L 66.619688 75.274987 
L 69.561984 76.913179 
L 72.50428 78.551371 
L 75.446575 80.189563 
L 78.388871 81.827755 
L 81.331167 83.465947 
L 84.273462 85.104139 
L 87.215758 86.742331 
L 90.158054 88.380524 
L 93.100349 90.018716 
L 96.042645 91.656908 
L 98.984941 93.2951 
L 101.927236 94.933292 
L 104.869532 96.571484 
L 107.811828 98.209676 
L 110.754123 99.847868 
L 113.696419 101.48606 
L 116.638715 103.124252 
L 119.581011 104.762444 
L 122.523306 106.400637 
L 125.465602 108.038829 
L 128.407898 109.677021 
L 131.350193 111.315213 
L 134.292489 112.953405 
L 137.234785 114.591597 
L 140.17708 116.229789 
L 143.119376 117.867981 
L 146.061672 119.506173 
L 149.003967 121.144365 
L 151.946263 122.782557 
L 154.888559 124.420749 
L 157.830854 126.058942 
L 160.77315 127.697134 
L 163.715446 129.335326 
L 166.657741 130.973518 
L 169.600037 132.61171 
L 172.542333 134.249902 
L 175.484629 135.888094 
L 178.426924 137.526286 
L 181.36922 139.164478 
L 184.311516 140.80267 
L 187.253811 142.440862 
L 190.196107 144.079054 
L 193.138403 145.717247 
L 196.080698 147.355439 
L 199.022994 148.993631 
L 201.96529 150.631823 
L 204.907585 152.270015 
L 207.849881 153.908207 
L 210.792177 155.546399 
L 213.734472 157.184591 
L 216.676768 158.822783 
L 219.619064 160.460975 
L 222.561359 162.099167 
L 225.503655 163.737359 
L 228.445951 165.375552 
L 231.388246 167.013744 
L 234.330542 168.651936 
L 237.272838 170.290128 
L 240.215134 171.92832 
L 243.157429 173.566512 
L 246.099725 175.204704 
L 249.042021 176.842896 
L 251.984316 178.481088 
L 254.926612 180.11928 
L 257.868908 181.757472 
L 260.811203 183.395664 
L 263.753499 185.033857 
L 266.695795 186.672049 
L 269.63809 188.310241 
L 272.580386 189.948433 
L 275.522682 191.586625 
L 278.464977 193.224817 
L 281.407273 194.863009 
L 284.349569 196.501201 
L 287.291864 198.139393 
L 290.23416 199.777585 
L 293.176456 201.415777 
L 296.118752 203.053969 
L 299.061047 204.692162 
L 302.003343 206.330354 
L 304.945639 207.968546 
L 307.887934 209.606738 
L 310.83023 211.24493 
L 313.772526 212.883122 
L 316.714821 214.521314 
L 319.657117 216.159506 
L 322.599413 217.797698 
L 325.541708 219.43589 
L 328.484004 221.074082 
L 331.4263 222.712274 
L 334.368595 224.350467 
L 337.310891 225.988659 
L 340.253187 227.626851 
L 343.195482 229.265043 
L 346.137778 230.903235 
L 349.080074 232.541427 
" clip-path="url(#p155696d60b)" style="fill: none; stroke: #808080; stroke-width: 2.25; stroke-linecap: square"/>
   </g>
   <g id="line2d_15"/>
   <g id="line2d_16"/>
   <g id="line2d_17"/>
   <g id="legend_1">
    <g id="patch_3">
     <path d="M 280.188188 72.41875 
L 356.644438 72.41875 
Q 358.644438 72.41875 358.644438 70.41875 
L 358.644438 14.2 
Q 358.644438 12.2 356.644438 12.2 
L 280.188188 12.2 
Q 278.188188 12.2 278.188188 14.2 
L 278.188188 70.41875 
Q 278.188188 72.41875 280.188188 72.41875 
z
" style="fill: #ffffff; opacity: 0.8; stroke: #cccccc; stroke-linejoin: miter"/>
    </g>
    <g id="text_16">
     <!-- variety -->
     <g transform="translate(303.690531 23.373437) scale(0.1 -0.1)">
      <defs>
       <path id="Helvetica-76" d="M 688 3347 
L 1581 622 
L 2516 3347 
L 3131 3347 
L 1869 0 
L 1269 0 
L 34 3347 
L 688 3347 
z
" transform="scale(0.015625)"/>
       <path id="Helvetica-61" d="M 844 891 
Q 844 647 1022 506 
Q 1200 366 1444 366 
Q 1741 366 2019 503 
Q 2488 731 2488 1250 
L 2488 1703 
Q 2384 1638 2221 1594 
Q 2059 1550 1903 1531 
L 1563 1488 
Q 1256 1447 1103 1359 
Q 844 1213 844 891 
z
M 2206 2028 
Q 2400 2053 2466 2191 
Q 2503 2266 2503 2406 
Q 2503 2694 2298 2823 
Q 2094 2953 1713 2953 
Q 1272 2953 1088 2716 
Q 984 2584 953 2325 
L 428 2325 
Q 444 2944 830 3186 
Q 1216 3428 1725 3428 
Q 2316 3428 2684 3203 
Q 3050 2978 3050 2503 
L 3050 575 
Q 3050 488 3086 434 
Q 3122 381 3238 381 
Q 3275 381 3322 386 
Q 3369 391 3422 400 
L 3422 -16 
Q 3291 -53 3222 -62 
Q 3153 -72 3034 -72 
Q 2744 -72 2613 134 
Q 2544 244 2516 444 
Q 2344 219 2022 53 
Q 1700 -113 1313 -113 
Q 847 -113 551 170 
Q 256 453 256 878 
Q 256 1344 547 1600 
Q 838 1856 1309 1916 
L 2206 2028 
z
M 1741 3428 
L 1741 3428 
z
" transform="scale(0.015625)"/>
       <path id="Helvetica-72" d="M 428 3347 
L 963 3347 
L 963 2769 
Q 1028 2938 1284 3180 
Q 1541 3422 1875 3422 
Q 1891 3422 1928 3419 
Q 1966 3416 2056 3406 
L 2056 2813 
Q 2006 2822 1964 2825 
Q 1922 2828 1872 2828 
Q 1447 2828 1219 2554 
Q 991 2281 991 1925 
L 991 0 
L 428 0 
L 428 3347 
z
" transform="scale(0.015625)"/>
       <path id="Helvetica-69" d="M 413 3331 
L 984 3331 
L 984 0 
L 413 0 
L 413 3331 
z
M 413 4591 
L 984 4591 
L 984 3953 
L 413 3953 
L 413 4591 
z
" transform="scale(0.015625)"/>
       <path id="Helvetica-65" d="M 1806 3422 
Q 2163 3422 2497 3255 
Q 2831 3088 3006 2822 
Q 3175 2569 3231 2231 
Q 3281 2000 3281 1494 
L 828 1494 
Q 844 984 1069 676 
Q 1294 369 1766 369 
Q 2206 369 2469 659 
Q 2619 828 2681 1050 
L 3234 1050 
Q 3213 866 3089 639 
Q 2966 413 2813 269 
Q 2556 19 2178 -69 
Q 1975 -119 1719 -119 
Q 1094 -119 659 336 
Q 225 791 225 1609 
Q 225 2416 662 2919 
Q 1100 3422 1806 3422 
z
M 2703 1941 
Q 2669 2306 2544 2525 
Q 2313 2931 1772 2931 
Q 1384 2931 1121 2651 
Q 859 2372 844 1941 
L 2703 1941 
z
M 1753 3428 
L 1753 3428 
z
" transform="scale(0.015625)"/>
       <path id="Helvetica-74" d="M 525 4281 
L 1094 4281 
L 1094 3347 
L 1628 3347 
L 1628 2888 
L 1094 2888 
L 1094 703 
Q 1094 528 1213 469 
Q 1278 434 1431 434 
Q 1472 434 1519 436 
Q 1566 438 1628 444 
L 1628 0 
Q 1531 -28 1426 -40 
Q 1322 -53 1200 -53 
Q 806 -53 665 148 
Q 525 350 525 672 
L 525 2888 
L 72 2888 
L 72 3347 
L 525 3347 
L 525 4281 
z
" transform="scale(0.015625)"/>
       <path id="Helvetica-79" d="M 2503 3347 
L 3125 3347 
Q 3006 3025 2597 1878 
Q 2291 1016 2084 472 
Q 1597 -809 1397 -1090 
Q 1197 -1372 709 -1372 
Q 591 -1372 527 -1362 
Q 463 -1353 369 -1328 
L 369 -816 
Q 516 -856 581 -865 
Q 647 -875 697 -875 
Q 853 -875 926 -823 
Q 1000 -772 1050 -697 
Q 1066 -672 1162 -440 
Q 1259 -209 1303 -97 
L 66 3347 
L 703 3347 
L 1600 622 
L 2503 3347 
z
M 1597 3428 
L 1597 3428 
z
" transform="scale(0.015625)"/>
      </defs>
      <use xlink:href="#Helvetica-76"/>
      <use xlink:href="#Helvetica-61" x="50"/>
      <use xlink:href="#Helvetica-72" x="105.615234"/>
      <use xlink:href="#Helvetica-69" x="138.916016"/>
      <use xlink:href="#Helvetica-65" x="161.132812"/>
      <use xlink:href="#Helvetica-74" x="216.748047"/>
      <use xlink:href="#Helvetica-79" x="244.53125"/>
     </g>
    </g>
    <g id="line2d_18">
     <defs>
      <path id="m84901b4230" d="M 0 3 
C 0.795609 3 1.55874 2.683901 2.12132 2.12132 
C 2.683901 1.55874 3 0.795609 3 0 
C 3 -0.795609 2.683901 -1.55874 2.12132 -2.12132 
C 1.55874 -2.683901 0.795609 -3 0 -3 
C -0.795609 -3 -1.55874 -2.683901 -2.12132 -2.12132 
C -2.683901 -1.55874 -3 -0.795609 -3 0 
C -3 0.795609 -2.683901 1.55874 -2.12132 2.12132 
C -1.55874 2.683901 -0.795609 3 0 3 
z
" style="stroke: #ffffff; stroke-width: 0.48"/>
     </defs>
     <g>
      <use xlink:href="#m84901b4230" x="292.188188" y="34.190625" style="fill: #1f77b4; stroke: #ffffff; stroke-width: 0.48"/>
     </g>
    </g>
    <g id="text_17">
     <!-- Setosa -->
     <g transform="translate(310.188188 37.690625) scale(0.1 -0.1)">
      <defs>
       <path id="Helvetica-53" d="M 894 1481 
Q 916 1091 1078 847 
Q 1388 391 2169 391 
Q 2519 391 2806 491 
Q 3363 684 3363 1184 
Q 3363 1559 3128 1719 
Q 2891 1875 2384 1991 
L 1763 2131 
Q 1153 2269 900 2434 
Q 463 2722 463 3294 
Q 463 3913 891 4309 
Q 1319 4706 2103 4706 
Q 2825 4706 3329 4357 
Q 3834 4009 3834 3244 
L 3250 3244 
Q 3203 3613 3050 3809 
Q 2766 4169 2084 4169 
Q 1534 4169 1293 3937 
Q 1053 3706 1053 3400 
Q 1053 3063 1334 2906 
Q 1519 2806 2169 2656 
L 2813 2509 
Q 3278 2403 3531 2219 
Q 3969 1897 3969 1284 
Q 3969 522 3414 194 
Q 2859 -134 2125 -134 
Q 1269 -134 784 303 
Q 300 738 309 1481 
L 894 1481 
z
M 2150 4716 
L 2150 4716 
z
" transform="scale(0.015625)"/>
       <path id="Helvetica-6f" d="M 1741 363 
Q 2300 363 2508 786 
Q 2716 1209 2716 1728 
Q 2716 2197 2566 2491 
Q 2328 2953 1747 2953 
Q 1231 2953 997 2559 
Q 763 2166 763 1609 
Q 763 1075 997 719 
Q 1231 363 1741 363 
z
M 1763 3444 
Q 2409 3444 2856 3012 
Q 3303 2581 3303 1744 
Q 3303 934 2909 406 
Q 2516 -122 1688 -122 
Q 997 -122 590 345 
Q 184 813 184 1600 
Q 184 2444 612 2944 
Q 1041 3444 1763 3444 
z
M 1744 3428 
L 1744 3428 
z
" transform="scale(0.015625)"/>
       <path id="Helvetica-73" d="M 747 1050 
Q 772 769 888 619 
Q 1100 347 1625 347 
Q 1938 347 2175 483 
Q 2413 619 2413 903 
Q 2413 1119 2222 1231 
Q 2100 1300 1741 1391 
L 1294 1503 
Q 866 1609 663 1741 
Q 300 1969 300 2372 
Q 300 2847 642 3140 
Q 984 3434 1563 3434 
Q 2319 3434 2653 2991 
Q 2863 2709 2856 2384 
L 2325 2384 
Q 2309 2575 2191 2731 
Q 1997 2953 1519 2953 
Q 1200 2953 1036 2831 
Q 872 2709 872 2509 
Q 872 2291 1088 2159 
Q 1213 2081 1456 2022 
L 1828 1931 
Q 2434 1784 2641 1647 
Q 2969 1431 2969 969 
Q 2969 522 2630 197 
Q 2291 -128 1597 -128 
Q 850 -128 539 211 
Q 228 550 206 1050 
L 747 1050 
z
M 1578 3428 
L 1578 3428 
z
" transform="scale(0.015625)"/>
      </defs>
      <use xlink:href="#Helvetica-53"/>
      <use xlink:href="#Helvetica-65" x="66.699219"/>
      <use xlink:href="#Helvetica-74" x="122.314453"/>
      <use xlink:href="#Helvetica-6f" x="150.097656"/>
      <use xlink:href="#Helvetica-73" x="205.712891"/>
      <use xlink:href="#Helvetica-61" x="255.712891"/>
     </g>
    </g>
    <g id="line2d_19">
     <defs>
      <path id="m77ce17b98e" d="M 0 3 
C 0.795609 3 1.55874 2.683901 2.12132 2.12132 
C 2.683901 1.55874 3 0.795609 3 0 
C 3 -0.795609 2.683901 -1.55874 2.12132 -2.12132 
C 1.55874 -2.683901 0.795609 -3 0 -3 
C -0.795609 -3 -1.55874 -2.683901 -2.12132 -2.12132 
C -2.683901 -1.55874 -3 -0.795609 -3 0 
C -3 0.795609 -2.683901 1.55874 -2.12132 2.12132 
C -1.55874 2.683901 -0.795609 3 0 3 
z
" style="stroke: #ffffff; stroke-width: 0.48"/>
     </defs>
     <g>
      <use xlink:href="#m77ce17b98e" x="292.188188" y="48.448437" style="fill: #ff7f0e; stroke: #ffffff; stroke-width: 0.48"/>
     </g>
    </g>
    <g id="text_18">
     <!-- Versicolor -->
     <g transform="translate(310.188188 51.948437) scale(0.1 -0.1)">
      <defs>
       <path id="Helvetica-56" d="M 850 4591 
L 2169 681 
L 3472 4591 
L 4169 4591 
L 2494 0 
L 1834 0 
L 163 4591 
L 850 4591 
z
" transform="scale(0.015625)"/>
       <path id="Helvetica-63" d="M 1703 3444 
Q 2269 3444 2623 3169 
Q 2978 2894 3050 2222 
L 2503 2222 
Q 2453 2531 2275 2736 
Q 2097 2941 1703 2941 
Q 1166 2941 934 2416 
Q 784 2075 784 1575 
Q 784 1072 996 728 
Q 1209 384 1666 384 
Q 2016 384 2220 598 
Q 2425 813 2503 1184 
L 3050 1184 
Q 2956 519 2581 211 
Q 2206 -97 1622 -97 
Q 966 -97 575 383 
Q 184 863 184 1581 
Q 184 2463 612 2953 
Q 1041 3444 1703 3444 
z
M 1616 3428 
L 1616 3428 
z
" transform="scale(0.015625)"/>
       <path id="Helvetica-6c" d="M 428 4591 
L 991 4591 
L 991 0 
L 428 0 
L 428 4591 
z
" transform="scale(0.015625)"/>
      </defs>
      <use xlink:href="#Helvetica-56"/>
      <use xlink:href="#Helvetica-65" x="66.699219"/>
      <use xlink:href="#Helvetica-72" x="122.314453"/>
      <use xlink:href="#Helvetica-73" x="155.615234"/>
      <use xlink:href="#Helvetica-69" x="205.615234"/>
      <use xlink:href="#Helvetica-63" x="227.832031"/>
      <use xlink:href="#Helvetica-6f" x="277.832031"/>
      <use xlink:href="#Helvetica-6c" x="333.447266"/>
      <use xlink:href="#Helvetica-6f" x="355.664062"/>
      <use xlink:href="#Helvetica-72" x="411.279297"/>
     </g>
    </g>
    <g id="line2d_20">
     <defs>
      <path id="m50bc613c8f" d="M 0 3 
C 0.795609 3 1.55874 2.683901 2.12132 2.12132 
C 2.683901 1.55874 3 0.795609 3 0 
C 3 -0.795609 2.683901 -1.55874 2.12132 -2.12132 
C 1.55874 -2.683901 0.795609 -3 0 -3 
C -0.795609 -3 -1.55874 -2.683901 -2.12132 -2.12132 
C -2.683901 -1.55874 -3 -0.795609 -3 0 
C -3 0.795609 -2.683901 1.55874 -2.12132 2.12132 
C -1.55874 2.683901 -0.795609 3 0 3 
z
" style="stroke: #ffffff; stroke-width: 0.48"/>
     </defs>
     <g>
      <use xlink:href="#m50bc613c8f" x="292.188188" y="62.70625" style="fill: #2ca02c; stroke: #ffffff; stroke-width: 0.48"/>
     </g>
    </g>
    <g id="text_19">
     <!-- Virginica -->
     <g transform="translate(310.188188 66.20625) scale(0.1 -0.1)">
      <defs>
       <path id="Helvetica-67" d="M 1594 3406 
Q 1988 3406 2281 3213 
Q 2441 3103 2606 2894 
L 2606 3316 
L 3125 3316 
L 3125 272 
Q 3125 -366 2938 -734 
Q 2588 -1416 1616 -1416 
Q 1075 -1416 706 -1173 
Q 338 -931 294 -416 
L 866 -416 
Q 906 -641 1028 -763 
Q 1219 -950 1628 -950 
Q 2275 -950 2475 -494 
Q 2594 -225 2584 466 
Q 2416 209 2178 84 
Q 1941 -41 1550 -41 
Q 1006 -41 598 345 
Q 191 731 191 1622 
Q 191 2463 602 2934 
Q 1013 3406 1594 3406 
z
M 2606 1688 
Q 2606 2309 2350 2609 
Q 2094 2909 1697 2909 
Q 1103 2909 884 2353 
Q 769 2056 769 1575 
Q 769 1009 998 714 
Q 1228 419 1616 419 
Q 2222 419 2469 966 
Q 2606 1275 2606 1688 
z
M 1659 3428 
L 1659 3428 
z
" transform="scale(0.015625)"/>
       <path id="Helvetica-6e" d="M 413 3347 
L 947 3347 
L 947 2872 
Q 1184 3166 1450 3294 
Q 1716 3422 2041 3422 
Q 2753 3422 3003 2925 
Q 3141 2653 3141 2147 
L 3141 0 
L 2569 0 
L 2569 2109 
Q 2569 2416 2478 2603 
Q 2328 2916 1934 2916 
Q 1734 2916 1606 2875 
Q 1375 2806 1200 2600 
Q 1059 2434 1017 2257 
Q 975 2081 975 1753 
L 975 0 
L 413 0 
L 413 3347 
z
M 1734 3428 
L 1734 3428 
z
" transform="scale(0.015625)"/>
      </defs>
      <use xlink:href="#Helvetica-56"/>
      <use xlink:href="#Helvetica-69" x="66.699219"/>
      <use xlink:href="#Helvetica-72" x="88.916016"/>
      <use xlink:href="#Helvetica-67" x="122.216797"/>
      <use xlink:href="#Helvetica-69" x="177.832031"/>
      <use xlink:href="#Helvetica-6e" x="200.048828"/>
      <use xlink:href="#Helvetica-69" x="255.664062"/>
      <use xlink:href="#Helvetica-63" x="277.880859"/>
      <use xlink:href="#Helvetica-61" x="327.880859"/>
     </g>
    </g>
   </g>
  </g>
 </g>
 <defs>
  <clipPath id="p155696d60b">
   <rect x="43.228438" y="7.2" width="320.416" height="269.5"/>
  </clipPath>
 </defs>
</svg>
